HIERARCHY
ROOT Hips
{
	OFFSET 0.00000 0.00000 0.00000
	CHANNELS 6 Xposition Yposition Zposition Yrotation Zrotation Xrotation 
	JOINT Lumbar
	{
		OFFSET 0 0 0
		CHANNELS 3 Zrotation Xrotation Yrotation
		JOINT Neck
		{
			OFFSET 0.00 0.2701 0.00
			CHANNELS 3 Zrotation Xrotation Yrotation
			End Site
			{
				OFFSET 0.00 0.1379 0.00
			}
		}
		JOINT RightShoulder
		{
			OFFSET 0.0119 0.2289 0.1181
			CHANNELS 3 Zrotation Xrotation Yrotation
			JOINT RightElbow
			{
				OFFSET 0.00 -0.1475 0.00
				CHANNELS 2 Zrotation Yrotation
				JOINT RightWrist
				{
					OFFSET 0.00 -0.1605 0.00
					CHANNELS 2 Zrotation Xrotation
					End Site
					{
						OFFSET 0.0040 -0.1068 0.0006
					}
				}
			}
		}
		JOINT LeftShoulder
		{
			OFFSET 0.0119 0.2289 -0.1181
			CHANNELS 3 Zrotation Xrotation Yrotation
			JOINT LeftElbow
			{
				OFFSET 0.00 -0.1475 0.00
				CHANNELS 2 Zrotation Yrotation
				JOINT LeftWrist
				{
					OFFSET 0.00 -0.1605 0.00
					CHANNELS 2 Zrotation Xrotation
					End Site
					{
						OFFSET 0.0040 -0.1068 -0.0006
					}
				}
			}
		}
	}
	JOINT RightHip
	{
		OFFSET 0.0316 -0.0424 0.0458
		CHANNELS 3 Zrotation Xrotation Yrotation
		JOINT RightKnee
		{
			OFFSET 0.00 -0.2438 0.00
			CHANNELS 1 Zrotation
			JOINT RightAnkle
			{
				OFFSET 0.00 -0.2449 0.00
				CHANNELS 3 Zrotation Xrotation Yrotation
				End Site
				{
					OFFSET 0.1237 -0.0542 0.0051
				}
			}
		}
	}
	JOINT LeftHip
	{
		OFFSET 0.0316 -0.0424 -0.0458
		CHANNELS 3 Zrotation Xrotation Yrotation
		JOINT LeftKnee
		{
			OFFSET 0.00 -0.2438 0.00
			CHANNELS 1 Zrotation
			JOINT LeftAnkle
			{
				OFFSET 0.00 -0.2449 0.00
				CHANNELS 3 Zrotation Xrotation Yrotation
				End Site
				{
					OFFSET 0.1237 -0.0542 -0.0051
				}
			}
		}
	}
}
MOTION
Frames: 14
Frame Time: 0.02
0.77334 0.56713 0.59596 -149.92673 0 -3.69024 -58.06927 1.81826 -37.95593 -66.5775 -44.11728 45.37529 148.79807 -43.29869 31.18728 5.78703 82.85797 -3.66975 -2.30854 137.64575 -4.10982 43.39983 5.7869 -86.38407 -1.91514 6.6308 23.19816 1.38859 -10.78274 -38.03524 8.8455 -1.97007 -0.79583 26.97644 7.01523 -2.65827 -37.36107 9.0839 5.22991 6.20916
0.77356 0.56623 0.59627 -150.00941 0 -3.83134 -58.06927 1.86254 -37.77117 -66.5775 -44.11728 46.53051 149.92076 -43.7186 33.54391 5.787 82.69491 -3.56496 -2.13717 137.8773 -4.6516 47.75958 5.78692 -85.91152 -1.53272 6.47009 23.38453 1.36843 -11.06661 -38.40046 9.0548 -1.8149 -0.54122 27.29716 7.06497 -2.8547 -37.9818 9.35886 5.43796 6.39003
0.77385 0.56519 0.59649 -150.06874 0 -3.99291 -58.06927 1.94992 -37.58916 -66.5775 -44.11729 47.73082 151.1077 -44.10667 36.28101 5.78697 82.45519 -3.4452 -1.95203 138.10872 -5.26001 51.9943 5.78707 -85.3356 -1.17428 6.27622 23.59895 1.33244 -11.43528 -38.81447 9.29312 -1.61786 -0.22495 27.66896 7.10866 -3.12825 -38.66602 9.65029 5.68034 6.6112
0.7741 0.56421 0.59675 -150.13835 0 -4.14702 -58.06927 2.01726 -37.40573 -66.5775 -44.11729 48.90706 152.25836 -44.50268 38.83108 5.78694 82.25324 -3.33473 -1.77727 138.34035 -5.84875 56.23123 5.78701 -84.81187 -0.81084 6.09868 23.79961 1.30613 -11.76565 -39.20538 9.51711 -1.4393 0.0623 28.01715 7.15523 -3.37236 -39.32142 9.93253 5.91008 6.81839
0.77439 0.56322 0.59703 -150.21061 0 -4.29578 -58.06927 2.08649 -37.22281 -66.57751 -44.1173 50.104 153.44665 -44.92559 41.45019 5.78691 82.03708 -3.21434 -1.58498 138.57011 -6.39214 60.77903 5.7871 -84.26986 -0.41783 5.91676 24.00561 1.271 -12.0982 -39.60101 9.74548 -1.26139 0.35646 28.36944 7.20278 -3.59721 -39.98065 10.22337 6.12992 7.01046
0.77462 0.56222 0.59724 -150.2716 0 -4.45811 -58.06927 2.1611 -37.04065 -66.57751 -44.1173 51.26386 154.56544 -45.28341 44.00492 5.78688 81.83423 -3.1103 -1.42621 138.80371 -7.04506 64.56826 5.78751 -83.74182 -0.09732 5.73385 24.20668 1.24931 -12.44322 -39.99778 9.97163 -1.07366 0.64869 28.72313 7.24588 -3.87653 -40.64327 10.49879 6.37626 7.24112
0.77467 0.56116 0.59732 -150.30346 0 -4.67125 -58.06927 2.25212 -36.84617 -66.57751 -44.11731 52.33989 155.51743 -45.49059 46.37958 5.78689 81.67183 -3.06191 -1.36052 139.0535 -7.99525 66.92001 5.78644 -83.25164 0.07304 5.58065 24.38741 1.27519 -12.82557 -40.3889 10.18633 -0.85899 0.9343 29.08332 7.28283 -4.31526 -41.32577 10.73811 6.70255 7.58347
0.77465 0.56008 0.59733 -150.32496 0 -4.89368 -58.06927 2.34548 -36.6546 -66.57751 -44.11731 53.37021 156.38825 -45.62954 48.65953 5.78692 81.52824 -3.02949 -1.3295 139.30603 -9.05082 68.39572 5.78806 -82.78116 0.16429 5.424 24.56168 1.31373 -13.21301 -40.77835 10.39738 -0.63799 1.21294 29.43987 7.31438 -4.80065 -42.00381 10.959 7.05099 7.95993
0.77466 0.55904 0.59737 -150.35381 0 -5.09988 -58.06927 2.42934 -36.47073 -66.57751 -44.11732 54.40285 157.26998 -45.78645 50.9228 5.78694 81.38617 -2.98489 -1.28447 139.55432 -10.05202 69.85431 5.7875 -82.32035 0.26099 5.25222 24.73912 1.3421 -13.5825 -41.16707 10.60922 -0.42645 1.48569 29.78844 7.34528 -5.24615 -42.66737 11.18179 7.37963 8.31105
0.77471 0.55789 0.59744 -150.37195 0 -5.35802 -58.06927 2.54817 -36.24954 -66.57752 -44.11732 55.51884 158.26715 -45.99826 53.45029 5.78696 81.19942 -2.95937 -1.23172 139.81659 -11.08585 73.04875 5.78299 -81.7854 0.48007 5.14664 24.91802 1.38878 -14.02098 -41.56579 10.82641 -0.18513 1.79938 30.1808 7.38947 -5.77331 -43.40535 11.43384 7.75198 8.70632
0.77464 0.55695 0.59741 -150.4087 0 -5.50927 -58.06927 2.59682 -36.10593 -66.57752 -44.11733 56.44497 158.99941 -46.0787 55.40148 5.78697 81.11055 -2.89958 -1.20329 140.04866 -12.07214 72.43785 5.79738 -81.4009 0.43278 4.9067 25.09016 1.4003 -14.31587 -41.94012 11.03037 -0.00553 2.02466 30.47876 7.4043 -6.14038 -43.9833 11.61868 8.03634 9.01571
0.77431 0.5565 0.59715 -150.51252 0 -5.36863 -58.06927 2.4282 -36.18301 -66.57752 -44.11733 56.89712 159.05558 -45.82277 55.76891 5.78698 81.29316 -2.72854 -1.2351 140.21094 -12.93315 61.40109 5.77432 -81.51661 -0.39248 4.26366 25.26037 1.3139 -14.21245 -42.2687 11.20569 0.00726 2.01281 30.53108 7.3437 -6.05388 -44.14715 11.63657 8.08675 9.09128
0.77385 0.55626 0.59678 -150.63313 0 -5.11912 -58.06927 2.19289 -36.33692 -66.57752 -44.11732 57.15138 158.84044 -45.43455 55.56038 5.78698 81.57268 -2.52498 -1.28995 140.33956 -13.73647 46.60098 5.78464 -81.76951 -1.47243 3.49212 25.42095 1.19151 -13.96402 -42.56844 11.36625 -0.04344 1.91095 30.4858 7.25323 -5.80415 -44.14511 11.58472 8.04487 9.0763
0.77343 0.55596 0.59645 -150.73751 0 -4.91555 -58.06927 2.003 -36.45069 -66.57752 -44.11732 57.47139 158.72653 -45.10178 55.6241 5.78698 81.80474 -2.34464 -1.33332 140.47492 -14.54492 33.59746 5.84078 -81.89794 -2.39391 2.80083 25.57591 1.084 -13.78196 -42.86747 11.52899 -0.0687 1.84648 30.47542 7.17326 -5.62895 -44.20083 11.55548 8.03569 9.0956
